<svg width="200" height="198" viewBox="0 0 200 198" fill="none" xmlns="http://www.w3.org/2000/svg">
<path d="M100 193.075C151.777 193.075 193.75 151.102 193.75 99.3251C193.75 47.5484 151.777 5.57507 100 5.57507C48.2233 5.57507 6.25 47.5484 6.25 99.3251C6.25 151.102 48.2233 193.075 100 193.075Z" fill="#04172A"/>
<path d="M100 0C44.8625 0 0 44.8625 0 100C0 155.137 44.8625 200 100 200C155.137 200 200 155.137 200 100C200 44.8625 155.137 0 100 0ZM187.462 100.75C166.287 95.1625 144.575 94.5125 123.888 98.775C121.062 91.725 118.012 84.7875 114.737 77.9375C133.45 69.1875 150.75 57.325 165.925 42.6625C179.312 58.025 187.5 78.05 187.5 100C187.5 100.25 187.462 100.488 187.462 100.75ZM157.088 33.8375C142.913 47.525 126.787 58.675 109.312 66.825C99.975 48.95 89.05 31.875 76.6875 15.75C84.125 13.6875 91.9125 12.5 100 12.5C121.812 12.5 141.75 20.575 157.088 33.8375ZM64.3375 20.175C77.025 36.325 88.1625 53.525 97.65 71.5375C71.4 81.5625 42.9 85.4125 14.3625 82.075C20.15 54.375 39.1 31.5 64.3375 20.175ZM12.5 100C12.5 98.125 12.6625 96.2875 12.7875 94.45C20.1875 95.325 27.5875 95.9 34.9625 95.9C58.4875 95.9 81.6 91.3 103.262 82.8625C106.262 89.1125 109.088 95.45 111.7 101.875C80.975 111.1 53.6 130.775 35.175 158.562C21.1375 143.038 12.5 122.525 12.5 100ZM44.3125 167.438C61.2625 140.788 87.1125 122 116.2 113.5C124.1 135.25 129.787 157.837 133.1 180.95C122.887 185.15 111.713 187.5 100 187.5C78.8625 187.5 59.45 179.963 44.3125 167.438ZM144.825 175C141.388 152.975 135.938 131.412 128.475 110.6C147.363 107.05 167.125 107.887 186.375 113.325C182.337 139.525 166.7 161.875 144.825 175Z" fill="#FBB405"/>
</svg>
