<svg width="381" height="381" viewBox="0 0 381 381" fill="none" xmlns="http://www.w3.org/2000/svg">
<g opacity="1">
<path d="M30.788 294.134C37.8585 304.96 46.1471 315.223 55.6536 324.73C65.1602 334.236 75.4234 342.525 86.2496 349.596L30.788 294.134Z" fill="url(#paint0_linear_175:700)"/>
<path d="M107.614 361.644L18.7392 272.769C16.0513 267.182 13.6525 261.491 11.543 255.717L124.666 368.841C118.893 366.731 113.201 364.332 107.614 361.644Z" fill="url(#paint1_linear_175:700)"/>
<path d="M138.42 373.278C142.73 374.49 147.075 375.546 151.445 376.448L3.93593 228.939C4.83733 233.309 5.89371 237.654 7.10507 241.964L138.42 373.278Z" fill="url(#paint2_linear_175:700)"/>
<path d="M1.95902 217.646L162.737 378.424C166.436 378.958 170.147 379.382 173.866 379.697L0.686324 206.518C1.00143 210.237 1.42566 213.948 1.95902 217.646Z" fill="url(#paint3_linear_175:700)"/>
<path d="M0.10583 196.622L183.762 380.278C187.068 380.386 190.377 380.408 193.684 380.344L0.0393283 186.699C-0.0243438 190.007 -0.00217661 193.315 0.10583 196.622Z" fill="url(#paint4_linear_175:700)"/>
<path d="M0.420549 177.765L202.619 379.963C205.637 379.763 208.652 379.492 211.66 379.149L1.23469 168.723C0.891566 171.732 0.620183 174.746 0.420549 177.765Z" fill="url(#paint5_linear_175:700)"/>
<path d="M2.35062 160.524L219.86 378.033C222.65 377.591 225.432 377.087 228.204 376.521L3.86222 152.179C3.29604 154.951 2.79217 157.734 2.35062 160.524Z" fill="url(#paint6_linear_175:700)"/>
<path d="M5.57754 144.579L235.804 374.806C238.403 374.163 240.991 373.465 243.565 372.711L7.67238 136.818C6.91851 139.393 6.22024 141.981 5.57754 144.579Z" fill="url(#paint7_linear_175:700)"/>
<path d="M9.89961 129.73L250.654 370.484C253.086 369.667 255.504 368.8 257.908 367.882L12.5017 122.476C11.5838 124.88 10.7164 127.298 9.89961 129.73Z" fill="url(#paint8_linear_175:700)"/>
<path d="M15.1812 115.84L264.544 365.202C266.826 364.23 269.093 363.211 271.343 362.146L18.2377 109.041C17.1722 111.291 16.1534 113.558 15.1812 115.84Z" fill="url(#paint9_linear_175:700)"/>
<path d="M21.3275 102.815L277.569 359.056C279.714 357.942 281.842 356.784 283.951 355.583L24.8008 96.4322C23.5994 98.542 22.4416 100.67 21.3275 102.815Z" fill="url(#paint10_linear_175:700)"/>
<path d="M28.2707 90.5864L289.797 352.113C291.813 350.866 293.811 349.579 295.79 348.25L32.1336 84.5937C30.8047 86.5722 29.5171 88.5701 28.2707 90.5864Z" fill="url(#paint11_linear_175:700)"/>
<path d="M35.9618 79.1061L301.277 344.422C303.172 343.05 305.046 341.639 306.9 340.189L40.195 73.4836C38.7447 75.3374 37.3336 77.212 35.9618 79.1061Z" fill="url(#paint12_linear_175:700)"/>
<path d="M44.366 68.3389L312.045 336.018C313.821 334.525 315.577 332.995 317.311 331.428L48.9555 63.0727C47.388 64.8065 45.8582 66.5622 44.366 68.3389Z" fill="url(#paint13_linear_175:700)"/>
<path d="M53.4586 58.2601L322.124 326.925C322.872 326.201 323.615 325.469 324.354 324.73C325.261 323.823 326.157 322.909 327.042 321.988L58.3955 53.3412C57.4748 54.2262 56.5607 55.1222 55.6536 56.0293C54.9146 56.7684 54.1829 57.512 53.4586 58.2601Z" fill="url(#paint14_linear_175:700)"/>
<path d="M63.2253 48.8554L331.528 317.158C333.09 315.418 334.613 313.656 336.099 311.874L68.5099 44.2842C66.7272 45.7702 64.9653 47.2939 63.2253 48.8554Z" fill="url(#paint15_linear_175:700)"/>
<path d="M73.6723 40.1309L340.253 306.711C341.697 304.851 343.101 302.97 344.467 301.07L79.3138 35.9167C77.4134 37.2821 75.5325 38.6868 73.6723 40.1309Z" fill="url(#paint16_linear_175:700)"/>
<path d="M84.8197 32.1069L348.277 295.564C349.599 293.579 350.88 291.574 352.12 289.551L90.8324 28.2637C88.8096 29.5034 86.8049 30.7845 84.8197 32.1069Z" fill="url(#paint17_linear_175:700)"/>
<path d="M96.6975 24.8131L355.57 283.686C356.765 281.569 357.916 279.434 359.023 277.283L103.101 21.3609C100.949 22.4678 98.8145 23.6186 96.6975 24.8131Z" fill="url(#paint18_linear_175:700)"/>
<path d="M109.348 18.2918L362.092 271.036C363.15 268.778 364.161 266.503 365.125 264.214L116.17 15.2581C113.88 16.2224 111.606 17.2337 109.348 18.2918Z" fill="url(#paint19_linear_175:700)"/>
<path d="M122.828 12.6011L367.782 257.555C368.692 255.143 369.551 252.716 370.359 250.276L130.107 10.0242C127.667 10.8323 125.24 11.6913 122.828 12.6011Z" fill="url(#paint20_linear_175:700)"/>
<path d="M137.221 7.82207L372.561 243.163C373.306 240.578 373.995 237.981 374.628 235.373L145.01 5.7556C142.402 6.38854 139.805 7.07737 137.221 7.82207Z" fill="url(#paint21_linear_175:700)"/>
<path d="M152.639 4.0692L376.314 227.744C376.87 224.961 377.363 222.168 377.793 219.367L161.017 2.59089C158.216 3.02093 155.423 3.51371 152.639 4.0692Z" fill="url(#paint22_linear_175:700)"/>
<path d="M169.251 1.50954L378.874 211.132C379.204 208.11 379.462 205.082 379.647 202.05L178.334 0.736175C175.302 0.92161 172.273 1.17941 169.251 1.50954Z" fill="url(#paint23_linear_175:700)"/>
<path d="M187.312 0.39859L379.985 193.072C380.032 189.746 379.992 186.42 379.865 183.096L197.287 0.518425C193.963 0.391717 190.637 0.351763 187.312 0.39859Z" fill="url(#paint24_linear_175:700)"/>
<path d="M207.243 1.15856L379.225 173.14C378.886 169.395 378.436 165.658 377.875 161.935L218.449 2.50841C214.725 1.94768 210.988 1.49774 207.243 1.15856Z" fill="url(#paint25_linear_175:700)"/>
<path d="M229.834 4.57839L375.805 150.549C374.863 146.133 373.762 141.743 372.502 137.39L242.994 7.88167C238.64 6.62192 234.251 5.52084 229.834 4.57839Z" fill="url(#paint26_linear_175:700)"/>
<path d="M256.938 12.5101L367.873 123.446C365.656 117.543 363.135 111.729 360.31 106.027L274.357 20.0733C268.655 17.2483 262.84 14.7272 256.938 12.5101Z" fill="url(#paint27_linear_175:700)"/>
<path d="M296.774 33.1745L347.209 83.61C340.592 73.8907 332.974 64.6489 324.354 56.0294C315.735 47.4098 306.493 39.7915 296.774 33.1745Z" fill="url(#paint28_linear_175:700)"/>
</g>
<defs>
<linearGradient id="paint0_linear_175:700" x1="56.8988" y1="55.4769" x2="327.368" y2="325.946" gradientUnits="userSpaceOnUse">
<stop stop-color="red"/>
<stop offset="1" stop-color="white" stop-opacity="0"/>
</linearGradient>
<linearGradient id="paint1_linear_175:700" x1="56.8988" y1="55.4769" x2="327.368" y2="325.946" gradientUnits="userSpaceOnUse">
<stop stop-color="red"/>
<stop offset="1" stop-color="white" stop-opacity="0"/>
</linearGradient>
<linearGradient id="paint2_linear_175:700" x1="56.8988" y1="55.4769" x2="327.368" y2="325.946" gradientUnits="userSpaceOnUse">
<stop stop-color="red"/>
<stop offset="1" stop-color="white" stop-opacity="0"/>
</linearGradient>
<linearGradient id="paint3_linear_175:700" x1="56.8988" y1="55.4769" x2="327.368" y2="325.946" gradientUnits="userSpaceOnUse">
<stop stop-color="red"/>
<stop offset="1" stop-color="white" stop-opacity="0"/>
</linearGradient>
<linearGradient id="paint4_linear_175:700" x1="56.8988" y1="55.4769" x2="327.368" y2="325.946" gradientUnits="userSpaceOnUse">
<stop stop-color="red"/>
<stop offset="1" stop-color="white" stop-opacity="0"/>
</linearGradient>
<linearGradient id="paint5_linear_175:700" x1="56.8988" y1="55.4769" x2="327.368" y2="325.946" gradientUnits="userSpaceOnUse">
<stop stop-color="red"/>
<stop offset="1" stop-color="white" stop-opacity="0"/>
</linearGradient>
<linearGradient id="paint6_linear_175:700" x1="56.8988" y1="55.4769" x2="327.368" y2="325.946" gradientUnits="userSpaceOnUse">
<stop stop-color="red"/>
<stop offset="1" stop-color="white" stop-opacity="0"/>
</linearGradient>
<linearGradient id="paint7_linear_175:700" x1="56.8988" y1="55.4769" x2="327.368" y2="325.946" gradientUnits="userSpaceOnUse">
<stop stop-color="red"/>
<stop offset="1" stop-color="white" stop-opacity="0"/>
</linearGradient>
<linearGradient id="paint8_linear_175:700" x1="56.8988" y1="55.4769" x2="327.368" y2="325.946" gradientUnits="userSpaceOnUse">
<stop stop-color="red"/>
<stop offset="1" stop-color="white" stop-opacity="0"/>
</linearGradient>
<linearGradient id="paint9_linear_175:700" x1="56.8988" y1="55.4769" x2="327.368" y2="325.946" gradientUnits="userSpaceOnUse">
<stop stop-color="red"/>
<stop offset="1" stop-color="white" stop-opacity="0"/>
</linearGradient>
<linearGradient id="paint10_linear_175:700" x1="56.8988" y1="55.4769" x2="327.368" y2="325.946" gradientUnits="userSpaceOnUse">
<stop stop-color="red"/>
<stop offset="1" stop-color="white" stop-opacity="0"/>
</linearGradient>
<linearGradient id="paint11_linear_175:700" x1="56.8988" y1="55.4769" x2="327.368" y2="325.946" gradientUnits="userSpaceOnUse">
<stop stop-color="red"/>
<stop offset="1" stop-color="white" stop-opacity="0"/>
</linearGradient>
<linearGradient id="paint12_linear_175:700" x1="56.8988" y1="55.4769" x2="327.368" y2="325.946" gradientUnits="userSpaceOnUse">
<stop stop-color="red"/>
<stop offset="1" stop-color="white" stop-opacity="0"/>
</linearGradient>
<linearGradient id="paint13_linear_175:700" x1="56.8988" y1="55.4769" x2="327.368" y2="325.946" gradientUnits="userSpaceOnUse">
<stop stop-color="red"/>
<stop offset="1" stop-color="white" stop-opacity="0"/>
</linearGradient>
<linearGradient id="paint14_linear_175:700" x1="56.8988" y1="55.4769" x2="327.368" y2="325.946" gradientUnits="userSpaceOnUse">
<stop stop-color="red"/>
<stop offset="1" stop-color="white" stop-opacity="0"/>
</linearGradient>
<linearGradient id="paint15_linear_175:700" x1="56.8988" y1="55.4769" x2="327.368" y2="325.946" gradientUnits="userSpaceOnUse">
<stop stop-color="red"/>
<stop offset="1" stop-color="white" stop-opacity="0"/>
</linearGradient>
<linearGradient id="paint16_linear_175:700" x1="56.8988" y1="55.4769" x2="327.368" y2="325.946" gradientUnits="userSpaceOnUse">
<stop stop-color="red"/>
<stop offset="1" stop-color="white" stop-opacity="0"/>
</linearGradient>
<linearGradient id="paint17_linear_175:700" x1="56.8988" y1="55.4769" x2="327.368" y2="325.946" gradientUnits="userSpaceOnUse">
<stop stop-color="red"/>
<stop offset="1" stop-color="white" stop-opacity="0"/>
</linearGradient>
<linearGradient id="paint18_linear_175:700" x1="56.8988" y1="55.4769" x2="327.368" y2="325.946" gradientUnits="userSpaceOnUse">
<stop stop-color="red"/>
<stop offset="1" stop-color="white" stop-opacity="0"/>
</linearGradient>
<linearGradient id="paint19_linear_175:700" x1="56.8988" y1="55.4769" x2="327.368" y2="325.946" gradientUnits="userSpaceOnUse">
<stop stop-color="red"/>
<stop offset="1" stop-color="white" stop-opacity="0"/>
</linearGradient>
<linearGradient id="paint20_linear_175:700" x1="56.8988" y1="55.4769" x2="327.368" y2="325.946" gradientUnits="userSpaceOnUse">
<stop stop-color="red"/>
<stop offset="1" stop-color="white" stop-opacity="0"/>
</linearGradient>
<linearGradient id="paint21_linear_175:700" x1="56.8988" y1="55.4769" x2="327.368" y2="325.946" gradientUnits="userSpaceOnUse">
<stop stop-color="red"/>
<stop offset="1" stop-color="white" stop-opacity="0"/>
</linearGradient>
<linearGradient id="paint22_linear_175:700" x1="56.8988" y1="55.4769" x2="327.368" y2="325.946" gradientUnits="userSpaceOnUse">
<stop stop-color="red"/>
<stop offset="1" stop-color="white" stop-opacity="0"/>
</linearGradient>
<linearGradient id="paint23_linear_175:700" x1="56.8988" y1="55.4769" x2="327.368" y2="325.946" gradientUnits="userSpaceOnUse">
<stop stop-color="red"/>
<stop offset="1" stop-color="white" stop-opacity="0"/>
</linearGradient>
<linearGradient id="paint24_linear_175:700" x1="56.8988" y1="55.4769" x2="327.368" y2="325.946" gradientUnits="userSpaceOnUse">
<stop stop-color="red"/>
<stop offset="1" stop-color="white" stop-opacity="0"/>
</linearGradient>
<linearGradient id="paint25_linear_175:700" x1="56.8988" y1="55.4769" x2="327.368" y2="325.946" gradientUnits="userSpaceOnUse">
<stop stop-color="red"/>
<stop offset="1" stop-color="white" stop-opacity="0"/>
</linearGradient>
<linearGradient id="paint26_linear_175:700" x1="56.8988" y1="55.4769" x2="327.368" y2="325.946" gradientUnits="userSpaceOnUse">
<stop stop-color="red"/>
<stop offset="1" stop-color="white" stop-opacity="0"/>
</linearGradient>
<linearGradient id="paint27_linear_175:700" x1="56.8988" y1="55.4769" x2="327.368" y2="325.946" gradientUnits="userSpaceOnUse">
<stop stop-color="red"/>
<stop offset="1" stop-color="white" stop-opacity="0"/>
</linearGradient>
<linearGradient id="paint28_linear_175:700" x1="56.8988" y1="55.4769" x2="327.368" y2="325.946" gradientUnits="userSpaceOnUse">
<stop stop-color="red"/>
<stop offset="1" stop-color="white" stop-opacity="0"/>
</linearGradient>
</defs>
</svg>
