<svg width="150" height="75" viewBox="0 0 150 75" fill="none" xmlns="http://www.w3.org/2000/svg">
<rect width="150" height="75" fill="white"/>
<path d="M14.68 66H21.904C23.432 66 24.664 65.568 25.6 64.704C26.536 63.832 27.004 62.648 27.004 61.152C27.004 60.152 26.748 59.28 26.236 58.536C25.732 57.792 25.032 57.224 24.136 56.832C24.76 56.472 25.252 55.972 25.612 55.332C25.98 54.684 26.164 53.964 26.164 53.172C26.164 52.356 25.964 51.612 25.564 50.94C25.164 50.26 24.604 49.72 23.884 49.32C23.164 48.92 22.32 48.72 21.352 48.72H14.68V66ZM16.456 56.088V50.388H21.34C22.212 50.388 22.928 50.644 23.488 51.156C24.056 51.668 24.34 52.332 24.34 53.148C24.34 54.012 24.048 54.72 23.464 55.272C22.88 55.816 22.172 56.088 21.34 56.088H16.456ZM16.456 64.308V57.756H21.796C22.444 57.756 23.024 57.908 23.536 58.212C24.048 58.516 24.448 58.928 24.736 59.448C25.032 59.96 25.18 60.536 25.18 61.176C25.18 62.16 24.824 62.928 24.112 63.48C23.4 64.032 22.52 64.308 21.472 64.308H16.456ZM32.7882 66H34.5642V58.764L40.3362 48.72H38.2962L33.6762 56.748L29.0322 48.72H26.9922L32.7882 58.764V66ZM44.6519 66H46.4879L47.9279 61.812H55.6079L57.0599 66H58.8959L52.9439 48.72H50.6039L44.6519 66ZM48.5039 60.156L51.7559 50.712L55.0319 60.156H48.5039ZM61.0628 66H66.3068C66.4748 66 66.7868 65.996 67.2428 65.988C67.6988 65.98 68.1268 65.948 68.5268 65.892C69.8388 65.708 70.9348 65.224 71.8148 64.44C72.6948 63.648 73.3548 62.64 73.7948 61.416C74.2348 60.184 74.4548 58.832 74.4548 57.36C74.4548 55.888 74.2348 54.54 73.7948 53.316C73.3548 52.092 72.6948 51.084 71.8148 50.292C70.9348 49.492 69.8388 49.004 68.5268 48.828C68.1108 48.772 67.6828 48.74 67.2428 48.732C66.8028 48.724 66.4908 48.72 66.3068 48.72H61.0628V66ZM62.8868 64.308V50.412H66.3068C66.6188 50.412 66.9668 50.424 67.3508 50.448C67.7428 50.464 68.0748 50.5 68.3468 50.556C69.3468 50.732 70.1588 51.14 70.7828 51.78C71.4068 52.412 71.8628 53.208 72.1508 54.168C72.4388 55.128 72.5828 56.192 72.5828 57.36C72.5828 58.504 72.4388 59.56 72.1508 60.528C71.8708 61.496 71.4188 62.3 70.7948 62.94C70.1708 63.58 69.3548 63.988 68.3468 64.164C68.0748 64.22 67.7468 64.26 67.3628 64.284C66.9868 64.3 66.6348 64.308 66.3068 64.308H62.8868ZM77.1878 66H87.9878V64.308H78.9518V58.08H86.5478V56.388H78.9518V50.412H87.9878V48.72H77.1878V66ZM90.8753 66H98.0993C99.6273 66 100.859 65.568 101.795 64.704C102.731 63.832 103.199 62.648 103.199 61.152C103.199 60.152 102.943 59.28 102.431 58.536C101.927 57.792 101.227 57.224 100.331 56.832C100.955 56.472 101.447 55.972 101.807 55.332C102.175 54.684 102.359 53.964 102.359 53.172C102.359 52.356 102.159 51.612 101.759 50.94C101.359 50.26 100.799 49.72 100.079 49.32C99.3593 48.92 98.5153 48.72 97.5473 48.72H90.8753V66ZM92.6513 56.088V50.388H97.5353C98.4073 50.388 99.1233 50.644 99.6833 51.156C100.251 51.668 100.535 52.332 100.535 53.148C100.535 54.012 100.243 54.72 99.6593 55.272C99.0753 55.816 98.3673 56.088 97.5353 56.088H92.6513ZM92.6513 64.308V57.756H97.9913C98.6393 57.756 99.2193 57.908 99.7313 58.212C100.243 58.516 100.643 58.928 100.931 59.448C101.227 59.96 101.375 60.536 101.375 61.176C101.375 62.16 101.019 62.928 100.307 63.48C99.5953 64.032 98.7153 64.308 97.6673 64.308H92.6513ZM105.834 66H107.598V48.72H105.834V66ZM117.196 66.36C118.404 66.36 119.48 66.16 120.424 65.76C121.376 65.36 122.128 64.784 122.68 64.032C123.232 63.272 123.508 62.356 123.508 61.284C123.508 60.468 123.356 59.792 123.052 59.256C122.756 58.712 122.38 58.276 121.924 57.948C121.476 57.612 121.016 57.356 120.544 57.18C120.072 56.996 119.66 56.856 119.308 56.76L115.924 55.764C115.476 55.636 115.012 55.472 114.532 55.272C114.06 55.072 113.66 54.796 113.332 54.444C113.012 54.092 112.852 53.624 112.852 53.04C112.852 52.464 113.028 51.952 113.38 51.504C113.732 51.048 114.212 50.692 114.82 50.436C115.428 50.172 116.116 50.044 116.884 50.052C118.092 50.06 119.128 50.4 119.992 51.072C120.864 51.736 121.388 52.628 121.564 53.748L123.412 53.412C123.132 51.86 122.408 50.636 121.24 49.74C120.072 48.836 118.624 48.38 116.896 48.372C115.76 48.364 114.748 48.556 113.86 48.948C112.972 49.332 112.272 49.88 111.76 50.592C111.248 51.296 110.992 52.136 110.992 53.112C110.992 54.272 111.34 55.176 112.036 55.824C112.74 56.464 113.62 56.94 114.676 57.252L119.056 58.56C119.456 58.68 119.86 58.844 120.268 59.052C120.676 59.26 121.016 59.548 121.288 59.916C121.568 60.284 121.708 60.764 121.708 61.356C121.708 62.036 121.516 62.624 121.132 63.12C120.748 63.616 120.22 64 119.548 64.272C118.884 64.536 118.124 64.668 117.268 64.668C115.98 64.668 114.872 64.352 113.944 63.72C113.016 63.08 112.408 62.2 112.12 61.08L110.32 61.38C110.52 62.404 110.932 63.288 111.556 64.032C112.18 64.776 112.972 65.352 113.932 65.76C114.9 66.16 115.988 66.36 117.196 66.36ZM126.225 66H127.989V48.72H126.225V66ZM131.922 66H133.974V63.948H131.922V66Z" fill="black" fill-opacity="0.6"/>
<path d="M15.336 41H18.888V24.272C18.888 22.24 19.44 20.616 20.544 19.4C21.648 18.168 23.096 17.552 24.888 17.552C26.68 17.552 28.12 18.152 29.208 19.352C30.312 20.536 30.864 22.16 30.864 24.224L30.84 41H34.32L34.344 24.272C34.344 22.656 34.64 21.36 35.232 20.384C35.84 19.392 36.608 18.672 37.536 18.224C38.464 17.776 39.416 17.552 40.392 17.552C42.104 17.552 43.512 18.128 44.616 19.28C45.736 20.416 46.296 21.984 46.296 23.984L46.272 41H49.8L49.824 23.312C49.824 20.576 49.04 18.408 47.472 16.808C45.92 15.192 43.832 14.384 41.208 14.384C39.48 14.384 37.928 14.776 36.552 15.56C35.176 16.328 34.112 17.392 33.36 18.752C32.656 17.328 31.64 16.248 30.312 15.512C29 14.76 27.496 14.384 25.8 14.384C24.264 14.384 22.864 14.696 21.6 15.32C20.336 15.928 19.304 16.76 18.504 17.816V15.08H15.336V41ZM63.4635 41.72C67.9915 41.72 71.2795 40.048 73.3275 36.704V41H76.4715V24.896C76.4715 23.936 76.4235 22.992 76.3275 22.064C76.2315 21.136 76.0235 20.296 75.7035 19.544C75.0155 17.864 73.8395 16.584 72.1755 15.704C70.5275 14.808 68.5195 14.36 66.1515 14.36C63.3035 14.36 60.9835 15 59.1915 16.28C57.3995 17.56 56.1995 19.36 55.5915 21.68L59.0235 22.688C59.5195 20.96 60.3755 19.696 61.5915 18.896C62.8235 18.096 64.3275 17.696 66.1035 17.696C68.5675 17.696 70.3275 18.272 71.3835 19.424C72.4395 20.56 72.9835 22.296 73.0155 24.632C71.8635 24.792 70.5915 24.96 69.1995 25.136C67.8235 25.312 66.4395 25.512 65.0475 25.736C63.6555 25.96 62.3755 26.216 61.2075 26.504C59.2715 27.016 57.6875 27.872 56.4555 29.072C55.2235 30.256 54.6075 31.912 54.6075 34.04C54.6075 35.416 54.9355 36.688 55.5915 37.856C56.2475 39.024 57.2315 39.96 58.5435 40.664C59.8715 41.368 61.5115 41.72 63.4635 41.72ZM63.8715 38.672C62.4795 38.672 61.3595 38.448 60.5115 38C59.6795 37.536 59.0715 36.952 58.6875 36.248C58.3195 35.528 58.1355 34.792 58.1355 34.04C58.1355 32.632 58.6075 31.576 59.5515 30.872C60.4955 30.168 61.5195 29.656 62.6235 29.336C64.0475 28.952 65.7035 28.64 67.5915 28.4C69.4795 28.16 71.2715 27.936 72.9675 27.728C72.9675 28.32 72.9435 29 72.8955 29.768C72.8635 30.52 72.7755 31.216 72.6315 31.856C72.2955 33.808 71.3675 35.432 69.8475 36.728C68.3435 38.024 66.3515 38.672 63.8715 38.672ZM92.7754 41.72C94.6634 41.72 96.3194 41.336 97.7434 40.568C99.1674 39.784 100.343 38.72 101.271 37.376V41H104.439V6.44H100.887V18.128C99.9434 16.944 98.7754 16.024 97.3834 15.368C96.0074 14.696 94.4234 14.36 92.6314 14.36C90.2634 14.36 88.2314 14.96 86.5354 16.16C84.8394 17.36 83.5354 18.992 82.6234 21.056C81.7274 23.12 81.2794 25.44 81.2794 28.016C81.2794 30.608 81.7274 32.936 82.6234 35C83.5354 37.064 84.8474 38.704 86.5594 39.92C88.2874 41.12 90.3594 41.72 92.7754 41.72ZM93.1354 38.432C91.3434 38.432 89.8394 37.976 88.6234 37.064C87.4234 36.136 86.5194 34.888 85.9114 33.32C85.3194 31.752 85.0234 29.984 85.0234 28.016C85.0234 26.064 85.3194 24.304 85.9114 22.736C86.5034 21.168 87.3994 19.928 88.5994 19.016C89.8154 18.104 91.3514 17.648 93.2074 17.648C95.9114 17.648 97.9274 18.616 99.2554 20.552C100.599 22.472 101.271 24.96 101.271 28.016C101.271 30.016 100.975 31.8 100.383 33.368C99.7914 34.936 98.8954 36.176 97.6954 37.088C96.4954 37.984 94.9754 38.432 93.1354 38.432ZM122.141 41.72C124.653 41.72 126.901 41.104 128.885 39.872C130.885 38.64 132.397 36.888 133.421 34.616L130.133 33.344C128.485 36.672 125.773 38.336 121.997 38.336C119.405 38.336 117.373 37.528 115.901 35.912C114.445 34.296 113.645 32 113.501 29.024H133.925C134.053 24.448 133.053 20.864 130.925 18.272C128.813 15.664 125.837 14.36 121.997 14.36C119.501 14.36 117.333 14.92 115.493 16.04C113.669 17.16 112.253 18.752 111.245 20.816C110.237 22.88 109.733 25.328 109.733 28.16C109.733 30.896 110.237 33.28 111.245 35.312C112.269 37.344 113.709 38.92 115.565 40.04C117.437 41.16 119.629 41.72 122.141 41.72ZM122.093 17.6C126.973 17.6 129.685 20.424 130.229 26.072H113.573C113.845 23.336 114.709 21.24 116.165 19.784C117.621 18.328 119.597 17.6 122.093 17.6Z" fill="black"/>
</svg>
